<?xml version="1.0" standalone="no"?><!-- Generator: Gravit.io --><svg xmlns="http://www.w3.org/2000/svg" xmlns:xlink="http://www.w3.org/1999/xlink" style="isolation:isolate" viewBox="98 100 662 102" width="662" height="102"><defs><clipPath id="_clipPath_8IhPw71aE01Prt4DBD8sZXtB7kgoV84f"><rect width="851" height="315"/></clipPath></defs><g clip-path="url(#_clipPath_8IhPw71aE01Prt4DBD8sZXtB7kgoV84f)"><g id="Logo"><path d=" M 490.503 190.378 L 490.503 201.748 L 469.492 201.748 L 469.492 100 L 490.503 100 L 490.503 140.008 L 490.503 140.008 Q 497.987 127.919 512.234 127.919 L 512.234 127.919 L 512.234 127.919 Q 525.906 127.919 534.829 137.85 L 534.829 137.85 L 534.829 137.85 Q 543.751 147.78 543.751 165.049 L 543.751 165.049 L 543.751 165.049 Q 543.751 180.448 535.189 191.53 L 535.189 191.53 L 535.189 191.53 Q 526.626 202.611 512.378 202.611 L 512.378 202.611 L 512.378 202.611 Q 497.843 202.611 490.503 190.378 L 490.503 190.378 Z  M 490.503 164.474 L 490.503 164.474 L 490.503 164.474 Q 490.503 173.828 494.964 179.441 L 494.964 179.441 L 494.964 179.441 Q 499.426 185.054 506.621 185.054 L 506.621 185.054 L 506.621 185.054 Q 513.242 185.054 517.847 179.657 L 517.847 179.657 L 517.847 179.657 Q 522.452 174.26 522.452 165.481 L 522.452 165.481 L 522.452 165.481 Q 522.452 155.983 517.919 150.658 L 517.919 150.658 L 517.919 150.658 Q 513.385 145.333 506.765 145.333 L 506.765 145.333 L 506.765 145.333 Q 500.145 145.333 495.324 150.37 L 495.324 150.37 L 495.324 150.37 Q 490.503 155.407 490.503 164.474 Z  M 620.554 164.905 L 620.554 164.905 L 620.554 164.905 Q 620.554 181.456 611.127 192.177 L 611.127 192.177 L 611.127 192.177 Q 601.701 202.899 584.863 202.899 L 584.863 202.899 L 584.863 202.899 Q 567.737 202.899 558.383 192.609 L 558.383 192.609 L 558.383 192.609 Q 549.028 182.319 549.028 166.201 L 549.028 166.201 L 549.028 166.201 Q 549.028 149.363 558.815 138.497 L 558.815 138.497 L 558.815 138.497 Q 568.601 127.632 584.863 127.632 L 584.863 127.632 L 584.863 127.632 Q 601.845 127.632 611.199 138.137 L 611.199 138.137 L 611.199 138.137 Q 620.554 148.643 620.554 164.905 Z  M 574.357 150.082 L 574.357 150.082 L 574.357 150.082 Q 570.903 155.983 570.903 165.337 L 570.903 165.337 L 570.903 165.337 Q 570.903 174.692 574.429 180.664 L 574.429 180.664 L 574.429 180.664 Q 577.955 186.637 585.007 186.637 L 585.007 186.637 L 585.007 186.637 Q 591.915 186.637 595.297 180.808 L 595.297 180.808 L 595.297 180.808 Q 598.679 174.98 598.679 165.625 L 598.679 165.625 L 598.679 165.625 Q 598.679 144.182 584.719 144.182 L 584.719 144.182 L 584.719 144.182 Q 577.811 144.182 574.357 150.082 Z  M 672.027 182.751 L 672.027 200.165 L 672.027 200.165 Q 666.702 202.467 657.636 202.467 L 657.636 202.467 L 657.636 202.467 Q 632.739 202.467 632.739 177.57 L 632.739 177.57 L 632.739 144.182 L 622.233 144.182 L 622.233 128.783 L 632.739 128.783 L 632.739 111.513 L 653.75 111.513 L 653.75 128.783 L 670.732 128.783 L 670.732 144.182 L 653.75 144.182 L 653.75 177.714 L 653.75 177.714 Q 653.75 181.6 655.981 183.614 L 655.981 183.614 L 655.981 183.614 Q 658.212 185.629 661.809 185.629 L 661.809 185.629 L 661.809 185.629 Q 667.566 185.629 672.027 182.751 L 672.027 182.751 Z  M 729.977 179.729 L 729.977 179.729 L 729.977 179.729 Q 729.977 190.522 722.206 196.423 L 722.206 196.423 L 722.206 196.423 Q 714.434 202.323 701.626 202.323 L 701.626 202.323 L 701.626 202.323 Q 688.386 202.323 679.463 197.862 L 679.463 197.862 L 679.463 179.153 L 679.463 179.153 Q 689.393 186.061 700.474 186.061 L 700.474 186.061 L 700.474 186.061 Q 708.39 186.061 708.39 181.024 L 708.39 181.024 L 708.39 181.024 Q 708.39 179.729 707.67 178.577 L 707.67 178.577 L 707.67 178.577 Q 706.951 177.426 705.224 176.419 L 705.224 176.419 L 705.224 176.419 Q 703.497 175.411 702.058 174.764 L 702.058 174.764 L 702.058 174.764 Q 700.618 174.116 697.884 172.965 L 697.884 172.965 L 697.884 172.965 Q 695.15 171.813 693.71 171.094 L 693.71 171.094 L 693.71 171.094 Q 679.175 164.186 679.175 150.37 L 679.175 150.37 L 679.175 150.37 Q 679.175 139.72 687.306 133.82 L 687.306 133.82 L 687.306 133.82 Q 695.437 127.919 707.526 127.919 L 707.526 127.919 L 707.526 127.919 Q 718.752 127.919 726.235 130.942 L 726.235 130.942 L 726.235 148.931 L 726.235 148.931 Q 718.608 144.47 708.39 144.47 L 708.39 144.47 L 708.39 144.47 Q 704.648 144.47 702.633 145.981 L 702.633 145.981 L 702.633 145.981 Q 700.618 147.492 700.618 149.794 L 700.618 149.794 L 700.618 149.794 Q 700.618 151.09 701.338 152.241 L 701.338 152.241 L 701.338 152.241 Q 702.058 153.392 703.713 154.4 L 703.713 154.4 L 703.713 154.4 Q 705.368 155.407 706.879 156.199 L 706.879 156.199 L 706.879 156.199 Q 708.39 156.99 711.052 158.141 L 711.052 158.141 L 711.052 158.141 Q 713.715 159.293 715.298 160.156 L 715.298 160.156 L 715.298 160.156 Q 721.918 163.61 725.947 168.144 L 725.947 168.144 L 725.947 168.144 Q 729.977 172.677 729.977 179.729 Z  M 757.129 181.024 L 757.129 181.024 L 757.129 181.024 Q 760.871 184.766 760.871 190.091 L 760.871 190.091 L 760.871 190.091 Q 760.871 195.415 757.129 199.157 L 757.129 199.157 L 757.129 199.157 Q 753.387 202.899 748.062 202.899 L 748.062 202.899 L 748.062 202.899 Q 742.737 202.899 738.996 199.157 L 738.996 199.157 L 738.996 199.157 Q 735.254 195.415 735.254 190.091 L 735.254 190.091 L 735.254 190.091 Q 735.254 184.766 738.996 181.024 L 738.996 181.024 L 738.996 181.024 Q 742.737 177.282 748.062 177.282 L 748.062 177.282 L 748.062 177.282 Q 753.387 177.282 757.129 181.024 Z " fill-rule="evenodd" fill="rgb(57,181,74)"/><path d=" M 133.403 160.588 L 133.403 160.588 L 132.396 164.042 L 155.71 164.042 L 154.702 160.588 L 154.702 160.588 Q 150.529 146.484 147.866 136.554 L 147.866 136.554 L 147.866 136.554 Q 145.204 126.624 144.628 123.746 L 144.628 123.746 L 144.053 120.868 L 144.053 120.868 Q 142.901 128.783 133.403 160.588 Z  M 127.071 181.887 L 121.17 201.748 L 98 201.748 L 130.381 104.749 L 158.3 104.749 L 190.681 201.748 L 166.935 201.748 L 161.035 181.887 L 127.071 181.887 Z  M 219.56 100 L 219.56 201.748 L 198.548 201.748 L 198.548 100 L 219.56 100 Z  M 259.52 187.356 L 259.52 187.356 L 259.52 187.356 Q 263.981 187.356 266.428 184.622 L 266.428 184.622 L 266.428 184.622 Q 268.875 181.887 268.875 177.138 L 268.875 177.138 L 268.875 171.813 L 262.111 171.813 L 262.111 171.813 Q 256.786 171.813 253.907 174.116 L 253.907 174.116 L 253.907 174.116 Q 251.029 176.419 251.029 180.017 L 251.029 180.017 L 251.029 180.017 Q 251.029 187.356 259.52 187.356 Z  M 269.882 201.748 L 269.882 192.825 L 269.882 192.825 Q 265.277 202.179 251.749 202.179 L 251.749 202.179 L 251.749 202.179 Q 241.099 202.179 235.127 196.135 L 235.127 196.135 L 235.127 196.135 Q 229.154 190.091 229.154 181.024 L 229.154 181.024 L 229.154 181.024 Q 229.154 170.518 236.854 164.69 L 236.854 164.69 L 236.854 164.69 Q 244.553 158.861 259.664 158.861 L 259.664 158.861 L 268.875 158.861 L 268.875 153.824 L 268.875 153.824 Q 268.875 144.614 256.642 144.614 L 256.642 144.614 L 256.642 144.614 Q 244.841 144.614 234.767 151.234 L 234.767 151.234 L 234.767 132.381 L 234.767 132.381 Q 243.402 127.488 259.664 127.488 L 259.664 127.488 L 259.664 127.488 Q 275.207 127.488 282.834 134.18 L 282.834 134.18 L 282.834 134.18 Q 290.462 140.872 290.462 154.975 L 290.462 154.975 L 290.462 201.748 L 269.882 201.748 Z  M 323.082 165.337 L 323.082 201.748 L 302.071 201.748 L 302.215 128.783 L 323.082 128.783 L 323.082 142.311 L 323.082 142.311 Q 325.097 135.979 329.774 132.165 L 329.774 132.165 L 329.774 132.165 Q 334.452 128.351 340.64 128.351 L 340.64 128.351 L 340.64 128.351 Q 344.094 128.351 346.109 128.927 L 346.109 128.927 L 346.109 148.787 L 346.109 148.787 Q 342.655 147.204 338.193 147.204 L 338.193 147.204 L 338.193 147.204 Q 331.429 147.204 327.256 152.169 L 327.256 152.169 L 327.256 152.169 Q 323.082 157.134 323.082 165.337 L 323.082 165.337 Z  M 457.739 154.975 L 457.739 201.748 L 436.727 201.748 L 436.727 158.429 L 436.727 158.429 Q 436.727 152.241 434.28 148.643 L 434.28 148.643 L 434.28 148.643 Q 431.834 145.045 427.229 145.045 L 427.229 145.045 L 427.229 145.045 Q 422.336 145.045 418.522 149.003 L 418.522 149.003 L 418.522 149.003 Q 414.708 152.961 414.708 163.179 L 414.708 163.179 L 414.708 201.748 L 393.697 201.748 L 393.697 158.429 L 393.697 158.429 Q 393.697 152.241 391.25 148.643 L 391.25 148.643 L 391.25 148.643 Q 388.803 145.045 384.198 145.045 L 384.198 145.045 L 384.198 145.045 Q 379.305 145.045 375.491 149.003 L 375.491 149.003 L 375.491 149.003 Q 371.678 152.961 371.678 163.179 L 371.678 163.179 L 371.678 201.748 L 350.666 201.748 L 350.666 128.783 L 371.678 128.783 L 371.678 140.152 L 371.678 140.152 Q 377.722 128.063 392.257 128.063 L 392.257 128.063 L 392.257 128.063 Q 407.656 128.063 412.693 141.879 L 412.693 141.879 L 412.693 141.879 Q 415.14 135.403 420.896 131.733 L 420.896 131.733 L 420.896 131.733 Q 426.653 128.063 434.424 128.063 L 434.424 128.063 L 434.424 128.063 Q 445.218 128.063 451.478 134.899 L 451.478 134.899 L 451.478 134.899 Q 457.739 141.735 457.739 154.975 L 457.739 154.975 Z " fill-rule="evenodd" fill="rgb(255,255,255)"/></g></g></svg>